Coordinates
version=1
nRows=13
nColumns=27
inDegrees=yes

Units are S.I. units (second, meters, Newtons, ...)
If the header above contains a line with 'inDegrees', this indicates whether rotational values are in degrees (yes) or radians (no).

endheader
time	pelvis_rotation	pelvis_tilt	pelvis_list	pelvis_tx	pelvis_ty	pelvis_tz	hip_flexion_r	hip_adduction_r	hip_rotation_r	knee_angle_r	knee_rotation_r	knee_adduction_r	knee_angle_r_beta	ankle_angle_r	subtalar_angle_r	mtp_angle_r	hip_flexion_l	hip_adduction_l	hip_rotation_l	knee_angle_l	knee_rotation_l	knee_adduction_l	knee_angle_l_beta	ankle_angle_l	subtalar_angle_l	mtp_angle_l
      5.24500000	     11.53019104	    -31.43630118	      5.88038570	     -0.04861306	      0.66015867	     -1.18495924	     92.59535847	    -41.78955036	      4.13517809	     76.98675815	      0.00000000	      0.00000000	      1.34367241	      6.36537630	      0.00000000	      0.00000000	     91.72288220	    -16.10307842	      8.48923540	     70.21285122	      0.00000000	      0.00000000	      1.22544543	      3.29060510	      0.00000000	      0.00000000
      5.25000000	     11.19740970	    -31.35441455	      5.83061455	     -0.04826920	      0.66056590	     -1.18476436	     92.47654241	    -41.40280120	      4.28338949	     76.91904169	      0.00000000	      0.00000000	      1.34249053	      6.46194715	      0.00000000	      0.00000000	     91.48008380	    -16.45926168	      8.29684655	     70.15180117	      0.00000000	      0.00000000	      1.22437991	      3.34415728	      0.00000000	      0.00000000
      5.25500000	     11.53983135	    -31.40830252	      5.87509672	     -0.04779623	      0.66076182	     -1.18489029	     92.39167429	    -41.81381348	      4.01610491	     76.90745265	      0.00000000	      0.00000000	      1.34228827	      6.39347349	      0.00000000	      0.00000000	     91.56721504	    -16.13114445	      8.44873076	     70.12334012	      0.00000000	      0.00000000	      1.22388317	      3.32939528	      0.00000000	      0.00000000
      5.26000000	     11.54184458	    -31.36455038	      5.86300863	     -0.04741501	      0.66104558	     -1.18483206	     92.25253677	    -41.82542272	      3.94387958	     76.86751535	      0.00000000	      0.00000000	      1.34159123	      6.41884987	      0.00000000	      0.00000000	     91.46910993	    -16.15289737	      8.43001037	     70.07748278	      0.00000000	      0.00000000	      1.22308281	      3.32451002	      0.00000000	      0.00000000
      5.26500000	     11.23073402	    -31.26177600	      5.81635720	     -0.04707599	      0.66139582	     -1.18467248	     92.12636331	    -41.46711870	      4.10262139	     76.81889125	      0.00000000	      0.00000000	      1.34074258	      6.46102717	      0.00000000	      0.00000000	     91.21975838	    -16.48668073	      8.24089087	     70.03477687	      0.00000000	      0.00000000	      1.22233745	      3.38205273	      0.00000000	      0.00000000
      5.27000000	     11.57356000	    -31.30191335	      5.86279470	     -0.04665327	      0.66165034	     -1.18477470	     92.01641513	    -41.86996289	      3.82756936	     76.79505669	      0.00000000	      0.00000000	      1.34032659	      6.43005226	      0.00000000	      0.00000000	     91.28429230	    -16.15905620	      8.38876805	     69.98532252	      0.00000000	      0.00000000	      1.22147431	      3.35777868	      0.00000000	      0.00000000
      5.27500000	     11.57417600	    -31.27154753	      5.84640873	     -0.04630618	      0.66196147	     -1.18472884	     91.88237648	    -41.87206734	      3.75579635	     76.74781933	      0.00000000	      0.00000000	      1.33950214	      6.43227549	      0.00000000	      0.00000000	     91.19537066	    -16.17335964	      8.38164431	     69.93518479	      0.00000000	      0.00000000	      1.22059924	      3.37177118	      0.00000000	      0.00000000
      5.28000000	     11.30062741	    -31.16163275	      5.82130739	     -0.04599068	      0.66233114	     -1.18459661	     91.76179888	    -41.56691356	      3.89849795	     76.69177436	      0.00000000	      0.00000000	      1.33852397	      6.45492845	      0.00000000	      0.00000000	     90.93352950	    -16.46860064	      8.18642022	     69.87197747	      0.00000000	      0.00000000	      1.21949606	      3.42663140	      0.00000000	      0.00000000
      5.28500000	     11.63698130	    -31.22424191	      5.82466435	     -0.04560013	      0.66260820	     -1.18467147	     91.61358974	    -41.95701466	      3.55342951	     76.65633545	      0.00000000	      0.00000000	      1.33790545	      6.49656337	      0.00000000	      0.00000000	     91.03707790	    -16.14067591	      8.38995209	     69.82034353	      0.00000000	      0.00000000	      1.21859488	      3.33883641	      0.00000000	      0.00000000
      5.29000000	     11.62338263	    -31.16365683	      5.86029767	     -0.04526852	      0.66282144	     -1.18463641	     91.54283317	    -41.95467876	      3.58356037	     76.63710992	      0.00000000	      0.00000000	      1.33756990	      6.45476911	      0.00000000	      0.00000000	     90.91203022	    -16.18313267	      8.30333359	     69.78819611	      0.00000000	      0.00000000	      1.21803380	      3.37779826	      0.00000000	      0.00000000
      5.29500000	     11.72765953	    -31.06642862	      5.80481921	     -0.04485237	      0.66315393	     -1.18462013	     91.24617852	    -42.11475811	      3.30917553	     76.57573729	      0.00000000	      0.00000000	      1.33649874	      6.48312638	      0.00000000	      0.00000000	     90.80231540	    -16.09471822	      8.39738698	     69.72954640	      0.00000000	      0.00000000	      1.21701017	      3.27955950	      0.00000000	      0.00000000
      5.30000000	     11.63970714	    -31.06629726	      5.79670109	     -0.04458959	      0.66337792	     -1.18456715	     91.21216641	    -42.00336969	      3.36227122	     76.55014474	      0.00000000	      0.00000000	      1.33605207	      6.47897564	      0.00000000	      0.00000000	     90.73217784	    -16.19842700	      8.32779986	     69.70657883	      0.00000000	      0.00000000	      1.21660931	      3.37304693	      0.00000000	      0.00000000
      5.30500000	     11.25444295	    -30.95411208	      5.59194685	     -0.04427400	      0.66377079	     -1.18439999	     90.92094699	    -41.58941752	      3.30920783	     76.44946817	      0.00000000	      0.00000000	      1.33429493	      6.53642202	      0.00000000	      0.00000000	     90.53249882	    -16.60075950	      8.25886093	     69.68658291	      0.00000000	      0.00000000	      1.21626032	      3.39479135	      0.00000000	      0.00000000
